<?xml version="1.0" standalone="no"?>
<!DOCTYPE svg PUBLIC "-//W3C//DTD SVG 20010904//EN"
 "http://www.w3.org/TR/2001/REC-SVG-20010904/DTD/svg10.dtd">
<svg version="1.0" xmlns="http://www.w3.org/2000/svg"
 width="512.000000pt" height="512.000000pt" viewBox="0 0 512.000000 512.000000"
 preserveAspectRatio="xMidYMid meet">
<metadata>
Created by potrace 1.11, written by Peter Selinger 2001-2013
</metadata>
<g transform="translate(0.000000,512.000000) scale(0.100000,-0.100000)"
fill="#000000" stroke="none">
<path d="M2378 5115 c-2 -1 -39 -5 -82 -9 -44 -4 -82 -9 -85 -11 -4 -2 -34 -7
-66 -10 -109 -13 -388 -87 -490 -130 -16 -7 -48 -20 -70 -28 -132 -50 -336
-161 -481 -262 -333 -233 -599 -529 -793 -883 -33 -62 -61 -115 -61 -117 0 -2
-15 -36 -34 -77 -72 -157 -148 -402 -170 -552 -4 -21 -8 -41 -10 -45 -4 -6
-12 -69 -26 -201 -8 -77 -6 -469 3 -505 3 -12 8 -48 12 -80 8 -67 7 -61 30
-170 147 -709 597 -1330 1229 -1694 229 -132 493 -233 746 -284 215 -44 286
-51 525 -52 222 0 294 6 480 41 44 9 91 18 105 20 193 37 521 170 735 299 598
360 1025 946 1179 1621 48 210 60 329 61 569 0 217 -11 339 -44 500 -6 28 -13
61 -15 75 -11 56 -50 190 -78 270 -189 533 -523 966 -990 1284 -54 36 -101 66
-105 66 -3 0 -14 6 -22 14 -20 18 -257 137 -331 166 -153 61 -375 126 -494
144 -21 4 -41 8 -45 10 -3 2 -35 7 -71 11 -36 4 -76 10 -90 12 -29 5 -447 13
-452 8z"/>
</g>
</svg>
